<svg width="150" height="150" viewBox="0 0 150 150" fill="none" xmlns="http://www.w3.org/2000/svg">
<path fill-rule="evenodd" clip-rule="evenodd" d="M75.5461 3.00018C108.904 3.08102 135.88 30.1882 135.799 63.5461C135.782 70.4471 134.608 77.0746 132.462 83.2463C128.767 94.9403 114.793 138.722 116.926 125.109C119.38 109.444 115.241 108.796 115.241 108.796C115.241 108.796 108.932 134.279 99.1515 142.226C97.432 143.945 92.4613 124.597 91.5666 121.612C75.2533 142.837 60.6398 146.505 60.6398 146.505C57.975 145.585 68.0358 128.033 53.4728 119.945C53.3927 120.061 32.9192 149.64 37.174 135.183C41.4231 120.744 34.0604 107.477 34.0129 107.392C34.0129 107.392 28.4578 110.169 23.3517 121.612C23.2612 121.814 23.1625 121.884 23.0558 121.834C25.0063 112.559 20.6972 92.9492 18.05 82.4025C16.0562 76.3826 14.984 69.9435 15.0002 63.2531C15.0811 29.8953 42.1883 2.91935 75.5461 3.00018ZM98.7795 39.343C93.1724 38.8818 88.0574 45.4345 87.3547 53.9787C86.6521 62.5227 90.6275 69.8232 96.2346 70.2844C101.842 70.7455 106.956 64.1927 107.659 55.6486C108.362 47.1044 104.387 39.8041 98.7795 39.343ZM64.6467 53.8635C63.8471 45.3278 58.6574 38.8329 53.0558 39.3576C47.4546 39.8825 43.5621 47.2275 44.3615 55.7629C45.1611 64.2984 50.3499 70.7932 55.9514 70.2687C61.5528 69.744 65.4461 62.399 64.6467 53.8635Z" fill="white"/>
</svg>
