<svg width="150" height="151" viewBox="0 0 150 151" fill="none" xmlns="http://www.w3.org/2000/svg">
<path d="M137.498 62.4981C137.498 97.0148 109.517 124.996 75 124.996C40.4833 124.996 12.502 97.0148 12.502 62.4981C12.502 27.9813 40.4833 0 75 0C109.517 0 137.498 27.9813 137.498 62.4981Z" fill="url(#paint0_linear_440_1210)"/>
<path d="M13.7519 74.9977L134.998 79.9975C134.998 79.9975 115.624 142.461 118.124 126.246C120.624 110.031 116.34 109.372 116.34 109.372C116.34 109.372 95.6244 155.331 95.6244 138.962C95.6244 131.207 91.8745 122.691 91.8745 122.691C91.8745 122.691 45.087 161.739 55.0006 147.422C67.5002 129.371 52.4534 121.062 52.4534 121.062C52.4534 121.062 31.2514 151.87 35.6262 136.871C40.0011 121.871 32.2856 108.122 32.2856 108.122C32.2856 108.122 29.5993 117.474 27.0488 123.919C25.0016 129.092 13.7519 74.9977 13.7519 74.9977Z" fill="url(#paint1_linear_440_1210)"/>
<path d="M104.373 34C114.935 34 123.498 42.5621 123.498 53.124C123.498 63.6861 114.935 72.249 104.373 72.249C93.8111 72.2488 85.249 63.686 85.249 53.124C85.2492 42.5622 93.8112 34.0002 104.373 34Z" stroke="black" stroke-width="3"/>
<path d="M47.9531 34C37.3911 34 28.8283 42.5621 28.8281 53.124C28.8281 63.6861 37.391 72.249 47.9531 72.249C58.5151 72.2488 67.0771 63.686 67.0771 53.124C67.077 42.5622 58.515 34.0002 47.9531 34Z" stroke="black" stroke-width="3"/>
<path d="M123.624 53.1211L137.326 46.7952" stroke="black" stroke-width="3" stroke-linecap="round"/>
<path d="M67.25 53.1211H85.1244" stroke="black" stroke-width="3" stroke-linecap="round"/>
<path d="M28.7061 53.1211L15.0036 46.7952" stroke="black" stroke-width="3" stroke-linecap="round"/>
<path d="M47.999 46.248C48.7033 46.2481 49.3827 46.355 50.0225 46.5518C48.8287 47.0906 47.9971 48.2907 47.9971 49.6855C47.9971 51.5838 49.5363 53.1229 51.4346 53.123C52.8303 53.123 54.0309 52.2907 54.5693 51.0957C54.7669 51.7366 54.874 52.4173 54.874 53.123C54.874 56.9198 51.7958 59.998 47.999 59.998C44.2022 59.998 41.124 56.9199 41.124 53.123C41.124 49.3262 44.2022 46.248 47.999 46.248Z" fill="black"/>
<ellipse cx="50.4523" cy="50.6017" rx="3.79504" ry="3.79504" fill="white"/>
<path d="M104.373 46.248C105.077 46.248 105.757 46.355 106.396 46.5518C105.203 47.0907 104.372 48.2908 104.372 49.6855C104.372 51.584 105.911 53.123 107.81 53.123C109.205 53.1229 110.405 52.2905 110.943 51.0957C111.141 51.7366 111.248 52.4173 111.248 53.123C111.248 56.9199 108.17 59.998 104.373 59.998C100.576 59.998 97.498 56.9199 97.498 53.123C97.498 49.3262 100.576 46.2481 104.373 46.248Z" fill="black"/>
<ellipse cx="107.378" cy="50.6017" rx="3.79504" ry="3.79504" fill="white"/>
<defs>
<linearGradient id="paint0_linear_440_1210" x1="75" y1="0" x2="75" y2="150.577" gradientUnits="userSpaceOnUse">
<stop stop-color="#882EF0"/>
<stop offset="1" stop-color="#3A4CF9"/>
</linearGradient>
<linearGradient id="paint1_linear_440_1210" x1="75" y1="0" x2="75" y2="150.577" gradientUnits="userSpaceOnUse">
<stop stop-color="#882EF0"/>
<stop offset="1" stop-color="#3A4CF9"/>
</linearGradient>
</defs>
</svg>
