<svg width="150" height="154" viewBox="0 0 150 154" fill="none" xmlns="http://www.w3.org/2000/svg">
<path d="M75 1C109.937 1 138.259 29.3219 138.259 64.2588C138.259 69.962 137.504 75.4889 136.089 80.7451L136.109 80.7461L135.927 81.332C135.59 82.5348 135.219 83.7228 134.814 84.8955C134.297 86.5478 133.585 88.8157 132.745 91.4639C130.974 97.047 128.638 104.326 126.379 111.101C124.123 117.866 121.934 124.16 120.46 127.758C120.091 128.657 119.76 129.41 119.477 129.965C119.336 130.241 119.196 130.489 119.06 130.69C118.956 130.844 118.75 131.135 118.439 131.302C118.253 131.402 117.905 131.52 117.51 131.367C117.138 131.224 116.963 130.931 116.891 130.772C116.756 130.479 116.74 130.141 116.737 129.918C116.732 129.398 116.814 128.626 116.971 127.611C118.207 119.59 117.735 115.581 117.06 113.628C116.892 113.143 116.714 112.794 116.554 112.545C116.45 112.771 116.334 113.027 116.203 113.309C115.637 114.532 114.829 116.261 113.859 118.284C111.921 122.329 109.332 127.561 106.74 132.288C104.17 136.974 101.531 141.288 99.4883 143.399C98.9742 143.931 98.4405 144.385 97.9023 144.657C97.3635 144.93 96.6437 145.101 95.9521 144.723C95.311 144.372 94.9876 143.7 94.8115 143.047C94.6276 142.365 94.5459 141.489 94.5459 140.431C94.5459 136.71 93.6425 132.765 92.7207 129.719C92.262 128.203 91.8034 126.924 91.46 126.025C91.4388 125.97 91.4158 125.917 91.3955 125.864C91.1294 126.085 90.8175 126.344 90.4629 126.637C89.2061 127.674 87.4225 129.14 85.3125 130.854C81.0937 134.28 75.5672 138.704 70.3467 142.684C65.1462 146.648 60.1888 150.219 57.1328 151.901C56.3692 152.322 55.6764 152.652 55.1025 152.834C54.8183 152.924 54.5115 152.995 54.2119 153.001C53.9228 153.007 53.4961 152.953 53.1455 152.632C52.7729 152.291 52.6925 151.842 52.7051 151.506C52.7173 151.181 52.8145 150.855 52.9346 150.558C53.178 149.954 53.6258 149.198 54.2549 148.289C60.3046 139.552 59.5858 133.379 57.5859 129.438C56.5642 127.425 55.1733 125.925 54.0293 124.927C53.5632 124.52 53.1411 124.2 52.8076 123.964C52.704 124.112 52.5882 124.28 52.459 124.464C51.8879 125.277 51.0772 126.421 50.1182 127.747C48.2018 130.397 45.6846 133.785 43.2988 136.709C42.1066 138.17 40.9383 139.527 39.8877 140.623C38.8586 141.696 37.872 142.594 37.0508 143.061C36.6649 143.279 36.1283 143.514 35.5625 143.433C35.2449 143.387 34.9437 143.243 34.7041 142.996C34.4768 142.761 34.3514 142.481 34.2812 142.223C34.147 141.728 34.1663 141.129 34.2568 140.492C34.3507 139.832 34.5377 139.026 34.8174 138.067C36.9294 130.826 36.1281 123.86 34.7793 118.676C34.1072 116.093 33.3019 113.965 32.666 112.485C32.4101 113.331 32.0999 114.35 31.7471 115.47C30.7585 118.608 29.4459 122.57 28.1621 125.813C28.073 126.039 27.8975 126.393 27.5342 126.613C27.0679 126.896 26.5794 126.804 26.249 126.614C25.9703 126.454 25.7662 126.213 25.625 126.019C25.4717 125.808 25.3261 125.557 25.1875 125.286C24.6423 124.221 24.0154 122.464 23.3467 120.3C21.9989 115.939 20.401 109.659 18.8721 103.242C17.3417 96.8196 15.8752 90.2375 14.792 85.2627C14.2503 82.7751 13.8049 80.6884 13.4941 79.2236C13.3388 78.4913 13.2165 77.9146 13.1338 77.5205C13.111 77.4122 13.091 77.3174 13.0742 77.2373C13.0525 77.1332 13.031 77.0291 13.0098 76.9248C13.0091 76.9215 13.0082 76.9187 13.0078 76.917V76.9141L12.7461 75.6592H12.7666C12.0936 71.9612 11.7412 68.151 11.7412 64.2588C11.7413 29.322 40.0632 1.00013 75 1Z" fill="white" stroke="black" stroke-width="2"/>
<circle cx="104.259" cy="54.9205" r="19.0455" stroke="black" stroke-width="3"/>
<circle cx="20.5455" cy="20.5455" r="19.0455" transform="matrix(-1 0 0 1 68.6006 34.375)" stroke="black" stroke-width="3"/>
<path d="M123.437 54.9219L137.087 48.6202" stroke="black" stroke-width="3" stroke-linecap="round"/>
<path d="M67.2783 54.9219H85.0844" stroke="black" stroke-width="3" stroke-linecap="round"/>
<path d="M28.8809 54.9219L15.2308 48.6202" stroke="black" stroke-width="3" stroke-linecap="round"/>
<mask id="path-8-outside-1_442_1211" maskUnits="userSpaceOnUse" x="40.2539" y="47.0742" width="16" height="16" fill="black">
<rect fill="white" x="40.2539" y="47.0742" width="16" height="16"/>
<path d="M48.1025 48.0742C48.8045 48.0742 49.4816 48.1808 50.1191 48.377C48.9306 48.9141 48.1035 50.11 48.1035 51.499C48.1037 53.3899 49.6365 54.9226 51.5273 54.9229C52.9165 54.9229 54.1114 54.095 54.6484 52.9062C54.8446 53.5438 54.9512 54.2209 54.9512 54.9229C54.9512 58.7052 51.8849 61.7715 48.1025 61.7715C44.3202 61.7715 41.2539 58.7052 41.2539 54.9229C41.254 51.1406 44.3203 48.0742 48.1025 48.0742Z"/>
</mask>
<path d="M48.1025 48.0742C48.8045 48.0742 49.4816 48.1808 50.1191 48.377C48.9306 48.9141 48.1035 50.11 48.1035 51.499C48.1037 53.3899 49.6365 54.9226 51.5273 54.9229C52.9165 54.9229 54.1114 54.095 54.6484 52.9062C54.8446 53.5438 54.9512 54.2209 54.9512 54.9229C54.9512 58.7052 51.8849 61.7715 48.1025 61.7715C44.3202 61.7715 41.2539 58.7052 41.2539 54.9229C41.254 51.1406 44.3203 48.0742 48.1025 48.0742Z" fill="url(#paint0_linear_442_1211)"/>
<path d="M48.1025 48.0742V47.0742H48.1025L48.1025 48.0742ZM50.1191 48.377L50.531 49.2882L52.9411 48.199L50.4132 47.4212L50.1191 48.377ZM48.1035 51.499H47.1035V51.4991L48.1035 51.499ZM51.5273 54.9229L51.5272 55.9229H51.5273V54.9229ZM54.6484 52.9062L55.6042 52.6121L54.8262 50.0838L53.7371 52.4946L54.6484 52.9062ZM54.9512 54.9229H55.9512V54.9228L54.9512 54.9229ZM48.1025 61.7715L48.1025 62.7715H48.1025V61.7715ZM41.2539 54.9229L40.2539 54.9228V54.9229H41.2539ZM48.1025 48.0742V49.0742C48.7027 49.0742 49.2807 49.1652 49.825 49.3327L50.1191 48.377L50.4132 47.4212C49.6824 47.1963 48.9062 47.0742 48.1025 47.0742V48.0742ZM50.1191 48.377L49.7073 47.4657C48.1739 48.1587 47.1035 49.7028 47.1035 51.499H48.1035H49.1035C49.1035 50.5172 49.6873 49.6695 50.531 49.2882L50.1191 48.377ZM48.1035 51.499L47.1035 51.4991C47.1037 53.9422 49.0842 55.9226 51.5272 55.9229L51.5273 54.9229L51.5275 53.9229C50.1888 53.9227 49.1036 52.8376 49.1035 51.4989L48.1035 51.499ZM51.5273 54.9229V55.9229C53.3244 55.9229 54.8672 54.851 55.5598 53.3179L54.6484 52.9062L53.7371 52.4946C53.3557 53.339 52.5086 53.9229 51.5273 53.9229V54.9229ZM54.6484 52.9062L53.6927 53.2004C53.8602 53.7446 53.9512 54.3226 53.9512 54.9229L54.9512 54.9229L55.9512 54.9228C55.9512 54.1192 55.8291 53.3431 55.6042 52.6121L54.6484 52.9062ZM54.9512 54.9229H53.9512C53.9512 58.1529 51.3326 60.7715 48.1025 60.7715V61.7715V62.7715C52.4371 62.7715 55.9512 59.2575 55.9512 54.9229H54.9512ZM48.1025 61.7715L48.1025 60.7715C44.8725 60.7715 42.2539 58.1529 42.2539 54.9229H41.2539H40.2539C40.2539 59.2575 43.7679 62.7715 48.1025 62.7715L48.1025 61.7715ZM41.2539 54.9229L42.2539 54.9229C42.254 51.6929 44.8726 49.0742 48.1025 49.0742L48.1025 48.0742L48.1025 47.0742C43.768 47.0742 40.254 50.5883 40.2539 54.9228L41.2539 54.9229Z" fill="black" mask="url(#path-8-outside-1_442_1211)"/>
<mask id="path-10-outside-2_442_1211" maskUnits="userSpaceOnUse" x="96.4121" y="47.0742" width="16" height="16" fill="black">
<rect fill="white" x="96.4121" y="47.0742" width="16" height="16"/>
<path d="M104.26 48.0742C104.962 48.0742 105.639 48.1809 106.276 48.377C105.087 48.9139 104.26 50.1097 104.26 51.499C104.26 53.39 105.794 54.9229 107.685 54.9229C109.074 54.9227 110.269 54.094 110.806 52.9043C111.002 53.5425 111.108 54.2202 111.108 54.9229C111.108 58.7052 108.042 61.7715 104.26 61.7715C100.478 61.7712 97.4121 58.705 97.4121 54.9229C97.4122 51.1407 100.478 48.0745 104.26 48.0742Z"/>
</mask>
<path d="M104.26 48.0742C104.962 48.0742 105.639 48.1809 106.276 48.377C105.087 48.9139 104.26 50.1097 104.26 51.499C104.26 53.39 105.794 54.9229 107.685 54.9229C109.074 54.9227 110.269 54.094 110.806 52.9043C111.002 53.5425 111.108 54.2202 111.108 54.9229C111.108 58.7052 108.042 61.7715 104.26 61.7715C100.478 61.7712 97.4121 58.705 97.4121 54.9229C97.4122 51.1407 100.478 48.0745 104.26 48.0742Z" fill="url(#paint1_linear_442_1211)"/>
<path d="M104.26 48.0742V47.0742H104.26L104.26 48.0742ZM106.276 48.377L106.688 49.2883L109.099 48.1992L106.57 47.4212L106.276 48.377ZM104.26 51.499H103.26V51.4991L104.26 51.499ZM107.685 54.9229V55.9229H107.685L107.685 54.9229ZM110.806 52.9043L111.761 52.6099L110.982 50.0805L109.894 52.4932L110.806 52.9043ZM111.108 54.9229H112.108V54.9228L111.108 54.9229ZM104.26 61.7715L104.26 62.7715H104.26V61.7715ZM97.4121 54.9229L96.4121 54.9228V54.9229H97.4121ZM104.26 48.0742V49.0742C104.86 49.0742 105.438 49.1653 105.982 49.3327L106.276 48.377L106.57 47.4212C105.84 47.1964 105.063 47.0742 104.26 47.0742V48.0742ZM106.276 48.377L105.865 47.4656C104.331 48.1583 103.26 49.7022 103.26 51.499H104.26H105.26C105.26 50.5172 105.844 49.6696 106.688 49.2883L106.276 48.377ZM104.26 51.499L103.26 51.4991C103.26 53.9426 105.242 55.9229 107.685 55.9229V54.9229V53.9229C106.346 53.9229 105.26 52.8375 105.26 51.4989L104.26 51.499ZM107.685 54.9229L107.685 55.9229C109.483 55.9226 111.025 54.8496 111.717 53.3154L110.806 52.9043L109.894 52.4932C109.513 53.3384 108.666 53.9227 107.684 53.9229L107.685 54.9229ZM110.806 52.9043L109.85 53.1987C110.018 53.7429 110.108 54.3214 110.108 54.9229L111.108 54.9229L112.108 54.9228C112.108 54.1189 111.987 53.342 111.761 52.6099L110.806 52.9043ZM111.108 54.9229H110.108C110.108 58.1529 107.49 60.7715 104.26 60.7715V61.7715V62.7715C108.594 62.7715 112.108 59.2575 112.108 54.9229H111.108ZM104.26 61.7715L104.26 60.7715C101.03 60.7713 98.4121 58.1528 98.4121 54.9229H97.4121H96.4121C96.4121 59.2572 99.9253 62.7712 104.26 62.7715L104.26 61.7715ZM97.4121 54.9229L98.4121 54.9229C98.4122 51.6929 101.03 49.0744 104.26 49.0742L104.26 48.0742L104.26 47.0742C99.9253 47.0745 96.4122 50.5886 96.4121 54.9228L97.4121 54.9229)" fill="black" mask="url(#path-10-outside-2_442_1211)"/>
<defs>
<linearGradient id="paint0_linear_442_1211" x1="41.2539" y1="54.9229" x2="54.9512" y2="54.9229" gradientUnits="userSpaceOnUse">
<stop stop-color="#8B2DF0"/>
<stop offset="1" stop-color="#354EF9"/>
</linearGradient>
<linearGradient id="paint1_linear_442_1211" x1="97.4121" y1="54.9229" x2="111.108" y2="54.9229" gradientUnits="userSpaceOnUse">
<stop stop-color="#8B2DF0"/>
<stop offset="1" stop-color="#354EF9"/>
</linearGradient>
</defs>
</svg>
