<svg width="179" height="179" viewBox="0 0 179 179" fill="none" xmlns="http://www.w3.org/2000/svg">
<rect x="6" y="6" width="167" height="167" rx="83.5" fill="#1C1C1C"/>
<rect x="6" y="6" width="167" height="167" rx="83.5" stroke="#DB9524" stroke-width="12"/>
<path d="M89.6375 149.24C80.7842 149.24 72.5708 147.853 64.9975 145.08C57.4242 142.2 50.8642 138.147 45.3175 132.92C39.8775 127.693 35.6108 121.56 32.5175 114.52C29.4242 107.373 27.8775 99.5333 27.8775 91C27.8775 82.4667 29.4242 74.68 32.5175 67.64C35.6108 60.4933 39.9308 54.3067 45.4775 49.08C51.0242 43.8533 57.5842 39.8533 65.1575 37.08C72.8375 34.2 81.2108 32.76 90.2775 32.76C100.838 32.76 110.278 34.52 118.598 38.04C126.918 41.56 133.798 46.6267 139.238 53.24L119.078 71.48C115.238 67.32 111.078 64.2267 106.598 62.2C102.224 60.0667 97.3175 59 91.8775 59C87.0775 59 82.7042 59.7467 78.7575 61.24C74.8108 62.7333 71.4508 64.92 68.6775 67.8C65.9042 70.5733 63.7175 73.9333 62.1175 77.88C60.6242 81.72 59.8775 86.0933 59.8775 91C59.8775 95.6933 60.6242 100.013 62.1175 103.96C63.7175 107.907 65.9042 111.32 68.6775 114.2C71.4508 116.973 74.7575 119.16 78.5975 120.76C82.5442 122.253 86.8642 123 91.5575 123C96.2508 123 100.838 122.253 105.318 120.76C109.798 119.16 114.331 116.493 118.918 112.76L136.678 135C130.278 139.587 122.864 143.107 114.438 145.56C106.011 148.013 97.7442 149.24 89.6375 149.24ZM136.678 135L108.678 130.84V88.6H136.678V135Z" fill="#E89D25"/>
</svg>
