<svg width="408" height="147" viewBox="0 0 408 147" fill="none" xmlns="http://www.w3.org/2000/svg">
<path d="M50.4 117.92C43.6 117.92 37.32 116.88 31.56 114.8C25.88 112.64 20.92 109.6 16.68 105.68C12.52 101.76 9.28 97.12 6.96 91.76C4.64 86.4 3.48 80.48 3.48 74C3.48 67.52 4.64 61.6 6.96 56.24C9.28 50.88 12.56 46.24 16.8 42.32C21.04 38.4 26.04 35.4 31.8 33.32C37.64 31.16 44.04 30.08 51 30.08C59.32 30.08 66.72 31.48 73.2 34.28C79.76 37.08 85.16 41.08 89.4 46.28L71.28 62.24C68.64 59.2 65.76 56.92 62.64 55.4C59.6 53.8 56.2 53 52.44 53C49.32 53 46.48 53.48 43.92 54.44C41.44 55.4 39.32 56.8 37.56 58.64C35.8 60.48 34.44 62.68 33.48 65.24C32.52 67.8 32.04 70.72 32.04 74C32.04 77.12 32.52 80 33.48 82.64C34.44 85.2 35.8 87.4 37.56 89.24C39.32 91.08 41.4 92.52 43.8 93.56C46.28 94.52 49.04 95 52.08 95C55.28 95 58.4 94.48 61.44 93.44C64.48 92.32 67.72 90.44 71.16 87.8L87 107.24C81.88 110.68 76.04 113.32 69.48 115.16C62.92 117 56.56 117.92 50.4 117.92ZM87 107.24L62.4 103.64V71.72H87V107.24ZM98.2266 116V26.96H125.347V69.56L118.867 64.04C121.427 59.08 124.867 55.36 129.187 52.88C133.587 50.4 138.467 49.16 143.827 49.16C148.867 49.16 153.427 50.2 157.507 52.28C161.587 54.28 164.787 57.44 167.107 61.76C169.507 66.08 170.707 71.68 170.707 78.56V116H143.587V83.24C143.587 79.16 142.867 76.28 141.427 74.6C139.987 72.84 138.027 71.96 135.547 71.96C133.707 71.96 131.987 72.4 130.387 73.28C128.867 74.08 127.627 75.44 126.667 77.36C125.787 79.28 125.347 81.88 125.347 85.16V116H98.2266ZM316.094 117.2C310.494 117.2 304.974 116.6 299.534 115.4C294.094 114.2 289.694 112.64 286.334 110.72L293.774 92.84C296.894 94.68 300.494 96.12 304.574 97.16C308.734 98.2 312.774 98.72 316.694 98.72C319.974 98.72 322.174 98.44 323.294 97.88C324.494 97.32 325.094 96.56 325.094 95.6C325.094 94.64 324.414 93.96 323.054 93.56C321.694 93.08 319.894 92.72 317.654 92.48C315.414 92.24 312.934 91.96 310.214 91.64C307.574 91.24 304.894 90.68 302.174 89.96C299.454 89.24 296.974 88.16 294.734 86.72C292.494 85.28 290.694 83.36 289.334 80.96C287.974 78.48 287.294 75.36 287.294 71.6C287.294 67.44 288.534 63.68 291.014 60.32C293.574 56.96 297.334 54.28 302.294 52.28C307.334 50.2 313.534 49.16 320.894 49.16C325.694 49.16 330.494 49.6 335.294 50.48C340.094 51.36 344.214 52.72 347.654 54.56L340.214 72.44C336.854 70.6 333.534 69.36 330.254 68.72C327.054 68 324.054 67.64 321.254 67.64C317.814 67.64 315.454 67.96 314.174 68.6C312.974 69.24 312.374 69.96 312.374 70.76C312.374 71.72 313.054 72.44 314.414 72.92C315.774 73.4 317.574 73.76 319.814 74C322.054 74.24 324.494 74.56 327.134 74.96C329.854 75.28 332.534 75.84 335.174 76.64C337.894 77.36 340.374 78.44 342.614 79.88C344.854 81.32 346.654 83.28 348.014 85.76C349.374 88.16 350.054 91.24 350.054 95C350.054 98.92 348.814 102.6 346.334 106.04C343.854 109.4 340.094 112.12 335.054 114.2C330.014 116.2 323.694 117.2 316.094 117.2ZM389.946 117.2C380.906 117.2 373.866 115.04 368.826 110.72C363.786 106.32 361.266 99.6 361.266 90.56V35.6H388.386V90.32C388.386 92.32 388.906 93.88 389.946 95C391.066 96.12 392.426 96.68 394.026 96.68C396.346 96.68 398.386 96.08 400.146 94.88L406.626 113.72C404.546 114.92 402.026 115.8 399.066 116.36C396.186 116.92 393.146 117.2 389.946 117.2ZM352.266 70.16V50.36H401.826V70.16H352.266Z" fill="black"/>
<path d="M278.81 76.405C278.81 103.691 256.691 125.81 229.405 125.81C202.119 125.81 180 103.691 180 76.405C180 49.1194 202.119 27 229.405 27C256.691 27 278.81 49.1194 278.81 76.405Z" fill="url(#paint0_linear_440_1121)"/>
<path d="M180.988 86.286L276.834 90.2384C276.834 90.2384 261.518 139.616 263.494 126.798C265.471 113.98 262.084 113.459 262.084 113.459C262.084 113.459 245.709 149.79 245.709 136.85C245.709 130.72 242.744 123.988 242.744 123.988C242.744 123.988 205.759 154.855 213.595 143.538C223.476 129.268 211.582 122.7 211.582 122.7C211.582 122.7 194.821 147.054 198.28 135.197C201.738 123.34 195.639 112.471 195.639 112.471C195.639 112.471 193.516 119.864 191.499 124.959C189.881 129.048 180.988 86.286 180.988 86.286Z" fill="url(#paint1_linear_440_1121)"/>
<circle cx="252.624" cy="68.9951" r="14.8036" stroke="black" stroke-width="3"/>
<circle cx="16.3036" cy="16.3036" r="14.8036" transform="matrix(-1 0 0 1 224.327 52.6914)" stroke="black" stroke-width="3"/>
<path d="M267.842 68.9922L278.674 63.9916" stroke="black" stroke-width="3" stroke-linecap="round"/>
<path d="M223.278 68.9922H237.408" stroke="black" stroke-width="3" stroke-linecap="round"/>
<path d="M192.809 68.9922L181.977 63.9916" stroke="black" stroke-width="3" stroke-linecap="round"/>
<path d="M208.061 63.5586C208.619 63.5586 209.157 63.6425 209.664 63.7988C208.719 64.2242 208.06 65.1727 208.06 66.2764C208.06 67.7769 209.277 68.9932 210.777 68.9932C211.881 68.9931 212.829 68.334 213.254 67.3887C213.41 67.8958 213.495 68.4346 213.495 68.9932C213.495 71.9945 211.062 74.4276 208.061 74.4277C205.059 74.4277 202.626 71.9946 202.626 68.9932C202.626 65.9918 205.059 63.5586 208.061 63.5586Z" fill="black"/>
<circle cx="210" cy="67" r="3" fill="white"/>
<path d="M252.624 63.5586C253.182 63.5586 253.721 63.6425 254.228 63.7988C253.282 64.2242 252.623 65.1726 252.623 66.2764C252.623 67.7769 253.84 68.9932 255.341 68.9932C256.444 68.9931 257.391 68.3343 257.816 67.3896C257.973 67.8966 258.059 68.4349 258.059 68.9932C258.059 71.9945 255.625 74.4276 252.624 74.4277C249.623 74.4277 247.189 71.9946 247.189 68.9932C247.19 65.9918 249.623 63.5586 252.624 63.5586Z" fill="black"/>
<circle cx="255" cy="67" r="3" fill="white"/>
<defs>
<linearGradient id="paint0_linear_440_1121" x1="229.405" y1="27" x2="229.405" y2="146.032" gradientUnits="userSpaceOnUse">
<stop stop-color="#882EF0"/>
<stop offset="1" stop-color="#3A4CF9"/>
</linearGradient>
<linearGradient id="paint1_linear_440_1121" x1="229.405" y1="27" x2="229.405" y2="146.032" gradientUnits="userSpaceOnUse">
<stop stop-color="#882EF0"/>
<stop offset="1" stop-color="#3A4CF9"/>
</linearGradient>
</defs>
</svg>
