<svg width="408" height="128" viewBox="0 0 408 128" fill="none" xmlns="http://www.w3.org/2000/svg">
<mask id="mask0_449_1457" style="mask-type:alpha" maskUnits="userSpaceOnUse" x="180" y="5" width="99" height="118">
<path d="M229.525 5.00015C256.81 5.06626 278.875 27.2385 278.809 54.5236C278.795 60.1468 277.84 65.5474 276.097 70.5792C273.103 80.0564 261.623 116.037 263.371 104.879C265.378 92.0661 261.993 91.5363 261.993 91.5363C261.986 91.5658 256.827 112.385 248.832 118.88C247.426 120.286 243.361 104.461 242.629 102.019C229.286 119.38 217.332 122.38 217.332 122.38C215.152 121.628 223.382 107.271 211.47 100.655C211.47 100.655 194.651 124.968 198.138 113.119C201.625 101.271 195.552 90.3869 195.552 90.3869C195.552 90.3869 191.009 92.6594 186.832 102.019C186.758 102.185 186.677 102.242 186.59 102.2C188.185 94.6137 184.662 78.5752 182.496 69.9484C180.865 65.0241 179.988 59.7571 180.001 54.2843C180.067 26.9992 202.239 4.93403 229.525 5.00015ZM246.68 31.9093C241.073 31.4481 235.958 38.0009 235.255 46.5451C234.552 55.0893 238.528 62.3895 244.135 62.8507C249.742 63.3118 254.857 56.7591 255.56 48.215C256.262 39.6709 252.287 32.3706 246.68 31.9093ZM224.565 46.4298C223.765 37.8943 218.576 31.4002 212.975 31.925C207.373 32.4497 203.481 39.7946 204.28 48.3302C205.08 56.8659 210.269 63.3598 215.87 62.8351C221.472 62.3104 225.364 54.9655 224.565 46.4298Z" fill="black"/>
</mask>
<g mask="url(#mask0_449_1457)">
<rect width="99" height="117" transform="translate(180 5)" fill="url(#paint0_linear_449_1457)"/>
</g>
<path d="M50.4 94.92C43.6 94.92 37.32 93.88 31.56 91.8C25.88 89.64 20.92 86.6 16.68 82.68C12.52 78.76 9.28 74.12 6.96 68.76C4.64 63.4 3.48 57.48 3.48 51C3.48 44.52 4.64 38.6 6.96 33.24C9.28 27.88 12.56 23.24 16.8 19.32C21.04 15.4 26.04 12.4 31.8 10.32C37.64 8.16 44.04 7.08 51 7.08C59.32 7.08 66.72 8.48 73.2 11.28C79.76 14.08 85.16 18.08 89.4 23.28L71.28 39.24C68.64 36.2 65.76 33.92 62.64 32.4C59.6 30.8 56.2 30 52.44 30C49.32 30 46.48 30.48 43.92 31.44C41.44 32.4 39.32 33.8 37.56 35.64C35.8 37.48 34.44 39.68 33.48 42.24C32.52 44.8 32.04 47.72 32.04 51C32.04 54.12 32.52 57 33.48 59.64C34.44 62.2 35.8 64.4 37.56 66.24C39.32 68.08 41.4 69.52 43.8 70.56C46.28 71.52 49.04 72 52.08 72C55.28 72 58.4 71.48 61.44 70.44C64.48 69.32 67.72 67.44 71.16 64.8L87 84.24C81.88 87.68 76.04 90.32 69.48 92.16C62.92 94 56.56 94.92 50.4 94.92ZM87 84.24L62.4 80.64V48.72H87V84.24ZM98.2266 93V3.95999H125.347V46.56L118.867 41.04C121.427 36.08 124.867 32.36 129.187 29.88C133.587 27.4 138.467 26.16 143.827 26.16C148.867 26.16 153.427 27.2 157.507 29.28C161.587 31.28 164.787 34.44 167.107 38.76C169.507 43.08 170.707 48.68 170.707 55.56V93H143.587V60.24C143.587 56.16 142.867 53.28 141.427 51.6C139.987 49.84 138.027 48.96 135.547 48.96C133.707 48.96 131.987 49.4 130.387 50.28C128.867 51.08 127.627 52.44 126.667 54.36C125.787 56.28 125.347 58.88 125.347 62.16V93H98.2266ZM316.094 94.2C310.494 94.2 304.974 93.6 299.534 92.4C294.094 91.2 289.694 89.64 286.334 87.72L293.774 69.84C296.894 71.68 300.494 73.12 304.574 74.16C308.734 75.2 312.774 75.72 316.694 75.72C319.974 75.72 322.174 75.44 323.294 74.88C324.494 74.32 325.094 73.56 325.094 72.6C325.094 71.64 324.414 70.96 323.054 70.56C321.694 70.08 319.894 69.72 317.654 69.48C315.414 69.24 312.934 68.96 310.214 68.64C307.574 68.24 304.894 67.68 302.174 66.96C299.454 66.24 296.974 65.16 294.734 63.72C292.494 62.28 290.694 60.36 289.334 57.96C287.974 55.48 287.294 52.36 287.294 48.6C287.294 44.44 288.534 40.68 291.014 37.32C293.574 33.96 297.334 31.28 302.294 29.28C307.334 27.2 313.534 26.16 320.894 26.16C325.694 26.16 330.494 26.6 335.294 27.48C340.094 28.36 344.214 29.72 347.654 31.56L340.214 49.44C336.854 47.6 333.534 46.36 330.254 45.72C327.054 45 324.054 44.64 321.254 44.64C317.814 44.64 315.454 44.96 314.174 45.6C312.974 46.24 312.374 46.96 312.374 47.76C312.374 48.72 313.054 49.44 314.414 49.92C315.774 50.4 317.574 50.76 319.814 51C322.054 51.24 324.494 51.56 327.134 51.96C329.854 52.28 332.534 52.84 335.174 53.64C337.894 54.36 340.374 55.44 342.614 56.88C344.854 58.32 346.654 60.28 348.014 62.76C349.374 65.16 350.054 68.24 350.054 72C350.054 75.92 348.814 79.6 346.334 83.04C343.854 86.4 340.094 89.12 335.054 91.2C330.014 93.2 323.694 94.2 316.094 94.2ZM389.946 94.2C380.906 94.2 373.866 92.04 368.826 87.72C363.786 83.32 361.266 76.6 361.266 67.56V12.6H388.386V67.32C388.386 69.32 388.906 70.88 389.946 72C391.066 73.12 392.426 73.68 394.026 73.68C396.346 73.68 398.386 73.08 400.146 71.88L406.626 90.72C404.546 91.92 402.026 92.8 399.066 93.36C396.186 93.92 393.146 94.2 389.946 94.2ZM352.266 47.16V27.36H401.826V47.16H352.266Z" fill="white"/>
<defs>
<linearGradient id="paint0_linear_449_1457" x1="0" y1="58.5" x2="99" y2="58.5" gradientUnits="userSpaceOnUse">
<stop stop-color="#8231F1"/>
<stop offset="1" stop-color="#4847F8"/>
</linearGradient>
</defs>
</svg>
